,
.   http://www.scenetime.com/signup.php  --->  Hottest scene tracker on the net !!!  

    seed back for speed


 



...................................NFO:.................................................      *********** ****    ****      ***      ******** *********** ****    *** **********
           *+*     +*+*+* *+*+*+   *+* *+*   *+*    *+*    *+*     *+*+*   *+* *+*        
           +*+     +*+ +*+*+ +*+  +*+   +*+  +*+           +*+     *+*+*+  +*+ +*+        
           +$+     +$+  +*+  +$+ +$++*++$++* *$*           +$+     +$+ +*+ +$+ +$++*++$  
           +$+     +$+       +$+ +$+     +$+ +$+   +$+$    +$+     +$+  +$+$+$ +$+        
           $+$     $+$       $+$ $+$     $+$ $+$    $+$    $+$     $+$   $+$+$ $+$        
       $$$$$$$$$$$ $$$       $$$ $$$     $$$  $$$$$$$$ $$$$$$$$$$$ $$$    $$$$ $$$$$$$$$$     
                                                



                           Another Fine Release Brought to you from - IMAGiNE                   
                                                 

********************************************************************************************************************                                
                            X-Men First Class 2011 TS READNFO XViD - IMAGiNE
********************************************************************************************************************

Ripper ...........: IMAGiNE                                      IMDB Rating.......: 8.3/10                             
Video Codec.......: XVID                                         Release Date......: 08/06/11
Audio Codec.......: MP3                                          Theatre Date......: 03/06/11
Audio Bitrate.....: 128                                          Runtime.......: 2h 03mn
Subtitles.........: ENGLISH WHEN NEEDED                          Language..........: ENGLISH
Resolution......: 720 x 288                                      IMDb URL..........: http://www.imdb.com/title/tt1270798/


[color=yellow]DETAILS:[/color]

Video
ID                               : 0
Format                           : MPEG-4 Visual
Format profile                   : Advanced Simple@L5
Format settings, BVOP            : 2
Format settings, QPel            : No
Format settings, GMC             : No warppoints
Format settings, Matrix          : Default (MPEG)
Muxing mode                      : Packed bitstream
Codec ID                         : XVID
Codec ID/Hint                    : XviD
Duration                         : 2h 3mn
Bit rate                         : 1 450 Kbps
Width                            : 720 pixels
Height                           : 288 pixels
Display aspect ratio             : 2.500
Frame rate                       : 23.976 fps
Color space                      : YUV
Chroma subsampling               : 4:2:0
Bit depth                        : 8 bits
Scan type                        : Progressive
Compression mode                 : Lossy
Bits/(Pixel*Frame)               : 0.292
Stream size                      : 1.25 GiB (91%)
Writing library                  : XviD 61

Audio
ID                               : 1
Format                           : MPEG Audio
Format version                   : Version 1
Format profile                   : Layer 3
Codec ID                         : 55
Codec ID/Hint                    : MP3
Duration                         : 2h 3mn
Bit rate mode                    : Constant
Bit rate                         : 128 Kbps
Channel(s)                       : 2 channels
Sampling rate                    : 44.1 KHz
Compression mode                 : Lossy
Stream size                      : 113 MiB (8%)
Alignment                        : Split accross interleaves
Interleave, duration             : 42 ms (1.00 video frame)


[color=yellow]SOURCES:[/color]

VIDEO: ........... Thanx Mate  :D
AUDIO: ........... Thanx Matey :P

[color=yellow]NOTES:[/color]

IMAGiNE bringing you another release..........
X-Men First Class TS .........
Ok here we are with our version of X-Men First Class........
Source files were very nice 
but they needed to be cropped and rotated differently....
So we cut the movie into pieces 
and wrote up seperate scripts for each 
to crop / rotate and resize.....
now for the most part 90% of this is stable, 
but from 1.19.30 to 1.23.30 it gets a little rough...
but other than that most of the camera movement 
wont be noticable much, but there is about 1 minute 
worth of random spots where we chose to over crop rather 
than have picture shift so might seem like AR is off 
from time to time but wont last long, about 5 - 20 seconds......
Now the source we used was missing a few minutes in 2 areas 
so we used the russian cam to fill in the blanks.........
so there is a 4 minute 20 second splice at 1.15.14  
and then the last 11 minutes and 11 seconds finish it up :D
Audio is very nice LiNE we filtered, synced and muxed to our encode :P
Enjoy Folks!

[color=yellow]SCREENS:[/color]





[color=yellow]GREETS:[/color]

FLAWL3SS,ViSiON,FUSiON,Rx,SecretMyth,BirdFlu,ELEKTRI4KA,SERENiTY and Autotron
And to all the other p2p grps past and present 


[COLOR=RED]Looking for these,syncers,cammers,silver supplier,Audio.....Have anything to offer????......
Contact us imaginegroup@hushmail.com[/COLOR]